<svg xmlns="http://www.w3.org/2000/svg" xmlns:xlink="http://www.w3.org/1999/xlink" viewBox="0,0,256,256" width="256px" height="256px"><g fill-opacity="0.67059" fill="#09ff88" fill-rule="nonzero" stroke="none" stroke-width="1" stroke-linecap="butt" stroke-linejoin="miter" stroke-miterlimit="10" stroke-dasharray="" stroke-dashoffset="0" font-family="none" font-weight="none" font-size="none" text-anchor="none" style="mix-blend-mode: normal"><g transform="scale(4,4)"><path d="M13,6c-3.85179,0 -7,3.14821 -7,7v38c0,3.85179 3.14821,7 7,7h38c3.85179,0 7,-3.14821 7,-7v-38c0,-3.85179 -3.14821,-7 -7,-7zM13,8h38c2.76821,0 5,2.23179 5,5v38c0,2.76821 -2.23179,5 -5,5h-38c-2.76821,0 -5,-2.23179 -5,-5v-38c0,-2.76821 2.23179,-5 5,-5zM16,17c-1.64497,0 -3,1.35503 -3,3v18c0,1.64497 1.35503,3 3,3h32c1.64497,0 3,-1.35503 3,-3v-18c0,-1.64497 -1.35503,-3 -3,-3zM16.41406,19h31.17188l-9.17578,9.17578c-0.08891,0.0637 -0.16676,0.14156 -0.23047,0.23047l-3.35156,3.35156c-1.57102,1.57102 -4.08523,1.57102 -5.65625,0l-3.34766,-3.34766c-0.0637,-0.08891 -0.14156,-0.16676 -0.23047,-0.23047zM15,20.41406l8.58594,8.58594l-8.58594,8.58594zM49,20.41406v17.17188l-8.58594,-8.58594zM25,30.41406l2.75781,2.75781c2.33498,2.33498 6.1494,2.33498 8.48438,0l2.75781,-2.75781l8.58594,8.58594h-31.17188zM12,48c-0.552,0 -1,0.448 -1,1v2c0,0.552 0.448,1 1,1c0.552,0 1,-0.448 1,-1v-2c0,-0.552 -0.448,-1 -1,-1zM17,48c-0.552,0 -1,0.448 -1,1v2c0,0.552 0.448,1 1,1c0.552,0 1,-0.448 1,-1v-2c0,-0.552 -0.448,-1 -1,-1zM22,48c-0.552,0 -1,0.448 -1,1v2c0,0.552 0.448,1 1,1c0.552,0 1,-0.448 1,-1v-2c0,-0.552 -0.448,-1 -1,-1zM27,48c-0.552,0 -1,0.448 -1,1v2c0,0.552 0.448,1 1,1c0.552,0 1,-0.448 1,-1v-2c0,-0.552 -0.448,-1 -1,-1zM32,48c-0.552,0 -1,0.448 -1,1v2c0,0.552 0.448,1 1,1c0.552,0 1,-0.448 1,-1v-2c0,-0.552 -0.448,-1 -1,-1zM37,48c-0.552,0 -1,0.448 -1,1v2c0,0.552 0.448,1 1,1c0.552,0 1,-0.448 1,-1v-2c0,-0.552 -0.448,-1 -1,-1zM42,48c-0.552,0 -1,0.448 -1,1v2c0,0.552 0.448,1 1,1c0.552,0 1,-0.448 1,-1v-2c0,-0.552 -0.448,-1 -1,-1zM47,48c-0.552,0 -1,0.448 -1,1v2c0,0.552 0.448,1 1,1c0.552,0 1,-0.448 1,-1v-2c0,-0.552 -0.448,-1 -1,-1zM52,48c-0.552,0 -1,0.448 -1,1v2c0,0.552 0.448,1 1,1c0.552,0 1,-0.448 1,-1v-2c0,-0.552 -0.448,-1 -1,-1z"></path></g></g></svg>